<svg height="30" viewBox="0 0 148 30" width="148" xmlns="http://www.w3.org/2000/svg"><path d="m.64 1h6.64c2.266678 0 3.9199948.5266614 4.96 1.58s1.56 2.6733224 1.56 4.86v1.12c0 1.44-.233331 2.6133288-.7 3.52s-1.1799952 1.559998-2.14 1.96v.08c2.1866776.7466704 3.28 2.6933176 3.28 5.84v2.4c0 2.1600108-.566661 3.806661-1.7 4.94s-2.7933224 1.7-4.98 1.7h-6.92zm6.12 11.4c.8800044 0 1.5399978-.2266644 1.98-.68s.66-1.213328.66-2.28v-1.56c0-1.0133384-.1799982-1.7466644-.54-2.2s-.9266628-.68-1.7-.68h-2.12v7.4zm.8 12.6c.7733372 0 1.3466648-.2066646 1.72-.62s.56-1.1266616.56-2.14v-2.44c0-1.2800064-.2199978-2.1666642-.66-2.66s-1.1666616-.74-2.18-.74h-1.96v8.6zm9.24-24h6.64c2.266678 0 3.9199948.5266614 4.96 1.58s1.56 2.6733224 1.56 4.86v1.12c0 1.44-.233331 2.6133288-.7 3.52s-1.1799952 1.559998-2.14 1.96v.08c2.1866776.7466704 3.28 2.6933176 3.28 5.84v2.4c0 2.1600108-.566661 3.806661-1.7 4.94s-2.7933224 1.7-4.98 1.7h-6.92zm6.12 11.4c.8800044 0 1.5399978-.2266644 1.98-.68s.66-1.213328.66-2.28v-1.56c0-1.0133384-.1799982-1.7466644-.54-2.2s-.9266628-.68-1.7-.68h-2.12v7.4zm.8 12.6c.7733372 0 1.3466648-.2066646 1.72-.62s.56-1.1266616.56-2.14v-2.44c0-1.2800064-.2199978-2.1666642-.66-2.66s-1.1666616-.74-2.18-.74h-1.96v8.6zm21.84 4.4c-2.1066772 0-3.7133278-.599994-4.82-1.8s-1.66-2.8933224-1.66-5.08v-15.04c0-2.1866776.5533278-3.88 1.66-5.08 1.1066722-1.200006 2.7133228-1.8 4.82-1.8s3.7133278.599994 4.82 1.8c1.1066722 1.2 1.66 2.8933224 1.66 5.08v2.96h-4.16v-3.24c0-1.733342-.733326-2.6-2.2-2.6s-2.2.866658-2.2 2.6v15.64c0 1.7066752.733326 2.56 2.2 2.56s2.2-.8533248 2.2-2.56v-4.28h4.16v3.96c0 2.1866776-.5533278 3.879994-1.66 5.08s-2.7133228 1.8-4.82 1.8zm15.56 0c-2.1600108 0-3.8133276-.6133272-4.96-1.84s-1.72-2.9599888-1.72-5.2v-14.72c0-2.2400112.5733276-3.9733272 1.72-5.2s2.7999892-1.84 4.96-1.84 3.8133276.6133272 4.96 1.84 1.72 2.9599888 1.72 5.2v14.72c0 2.2400112-.5733276 3.9733272-1.72 5.2s-2.7999892 1.84-4.96 1.84zm0-4c1.5200076 0 2.28-.9199908 2.28-2.76v-15.28c0-1.8400092-.7599924-2.76-2.28-2.76s-2.28.9199908-2.28 2.76v15.28c0 1.8400092.7599924 2.76 2.28 2.76zm12.96-24.4h5.96l4.56 28h-4.4l-.8-5.56v.08h-5l-.8 5.48h-4.08zm4.8 18.72-1.96-13.84h-.08l-1.92 13.84zm13.96 9.68c-2.1066772 0-3.7133278-.599994-4.82-1.8s-1.66-2.8933224-1.66-5.08v-15.04c0-2.1866776.5533278-3.88 1.66-5.08 1.1066722-1.200006 2.7133228-1.8 4.82-1.8s3.7133278.599994 4.82 1.8c1.1066722 1.2 1.66 2.8933224 1.66 5.08v2.96h-4.16v-3.24c0-1.733342-.733326-2.6-2.2-2.6s-2.2.866658-2.2 2.6v15.64c0 1.7066752.733326 2.56 2.2 2.56s2.2-.8533248 2.2-2.56v-4.28h4.16v3.96c0 2.1866776-.5533278 3.879994-1.66 5.08s-2.7133228 1.8-4.82 1.8zm9.12-28.4h4.4v11.4h4.72v-11.4h4.4v28h-4.4v-12.6h-4.72v12.6h-4.4zm16.8 0h12v4h-7.6v7.4h6.04v4h-6.04v8.6h7.6v4h-12zm14.52 0h5.52l4.28 16.76h.08v-16.76h3.92v28h-4.52l-5.28-20.44h-.08v20.44h-3.92z" fill="#121212"/></svg>