<svg height="60" viewBox="0 0 104 60" width="104" xmlns="http://www.w3.org/2000/svg"><g fill="none" fill-rule="nonzero"><path d="m20.1659245 18.3925614-.0008684.0150917c5.3455151.2895861 9.5905976 4.7159512 9.5905976 10.1335423s-4.2450825 9.8439562-9.5905976 10.1335423l.0008684 20.4358091c-11.15554068-.1069358-20.1659245-9.178156-20.1659245-20.3586906 0-10.3915536 7.78385537-18.9617907 17.8392756-20.2052012.5738761-.1014506 1.1647641-.1540936 1.7679455-.1540936.103497 0 .2066321.0015694.3093833.0046461z" fill="#39b54a"/><path d="m23.9364022 37.7104904-.063958.0761551c-.0094829.0122834-.0197098.025949-.0304602.0409198l-.0690181.1048759-.0709893.1325228c-.1482965.3144251-.2358948.7976087.2219643 1.2810522 3.8281202 1.4768166 6.5428047 5.1911395 6.5428047 9.5399743 0 5.6462414-4.5776997 10.2245362-10.2245565 10.2245362-5.6472594 0-10.2249592-4.5782948-10.2249592-10.2245362 0-5.5531275 4.4263814-10.0716627 9.9435038-10.220738l.4513964-.0066072.1800356-.0129647.1719671-.0182453.2118622-.0286801.2503346-.0414746c.0448494-.0081098.0912426-.016851.1391498-.0262727l.3053759-.0650911.3402918-.083785.3737852-.1048387c.4550673-.1355109.9756125-.3188243 1.5514699-.5668027z" fill="#066738"/><path d="m24.7183916.00009367c-3.5832497 0-6.4886363 2.90519098-6.4886363 6.48905196 0 3.58365957 2.9053866 6.48905197 6.4886363 6.48905197 3.5842567 0 6.4894419-2.9053924 6.4894419-6.48905197 0-3.58386098-2.9051852-6.48905196-6.4894419-6.48905196" fill="#066738" transform="matrix(0 -1 -1 0 31.20794 31.20794)"/><path d="m38.356 35.256c.6864 0 1.353-.0792 1.9998-.2376s1.2243-.4026 1.7325-.7326.9141-.7557 1.2177-1.2771.4554-1.1385.4554-1.8513c0-.5412-.0759-1.0098-.2277-1.4058s-.3597-.7326-.6237-1.0098-.5742-.495-.9306-.6534-.7326-.2706-1.1286-.3366v-.1188c.4488-.1056.8316-.2673 1.1484-.4851s.5742-.4686.7722-.7524.3399-.5973.4257-.9405.1287-.6864.1287-1.0296c0-.6864-.1452-1.254-.4356-1.7028s-.6765-.7986-1.1583-1.0494-1.0296-.4257-1.6434-.5247-1.2441-.1485-1.8909-.1485c-.3828 0-.7689.0066-1.1583.0198s-.7689.033-1.1385.0594-.7161.0594-1.0395.099-.6105.0792-.8613.1188v13.662c.3432.0792.7227.1386 1.1385.1782s.825.0693 1.2276.0891.7788.0297 1.1286.0297zm-.8712-8.2368h-.8712v-3.7026c.1584-.0264.3828-.0462.6732-.0594s.6072-.0198.9504-.0198c.3036 0 .594.0264.8712.0792s.5247.1452.7425.2772.3927.3102.5247.5346.198.5082.198.8514c0 .5148-.1815.9306-.5445 1.2474s-.7953.5544-1.2969.7128c-.1584.0264-.3597.0462-.6039.0594s-.4587.0198-.6435.0198zm.891 5.9994c-.132 0-.2871-.0033-.4653-.0099s-.3498-.0132-.5148-.0198-.3201-.0165-.4653-.0297-.2508-.033-.3168-.0594v-3.8214h1.4454c.3432 0 .6864.0198 1.0296.0594s.6534.1287.9306.2673.5016.3333.6732.5841.2574.594.2574 1.0296c0 .3432-.0726.6402-.2178.891s-.3366.4587-.5742.6237-.5115.2871-.8217.3663-.6303.1188-.9603.1188zm11.682 2.2374c.6864 0 1.353-.0792 1.9998-.2376s1.2243-.4026 1.7325-.7326.9141-.7557 1.2177-1.2771.4554-1.1385.4554-1.8513c0-.5412-.0759-1.0098-.2277-1.4058s-.3597-.7326-.6237-1.0098-.5742-.495-.9306-.6534-.7326-.2706-1.1286-.3366v-.1188c.4488-.1056.8316-.2673 1.1484-.4851s.5742-.4686.7722-.7524.3399-.5973.4257-.9405.1287-.6864.1287-1.0296c0-.6864-.1452-1.254-.4356-1.7028s-.6765-.7986-1.1583-1.0494-1.0296-.4257-1.6434-.5247-1.2441-.1485-1.8909-.1485c-.3828 0-.7689.0066-1.1583.0198s-.7689.033-1.1385.0594-.7161.0594-1.0395.099-.6105.0792-.8613.1188v13.662c.3432.0792.7227.1386 1.1385.1782s.825.0693 1.2276.0891.7788.0297 1.1286.0297zm-.8712-8.2368h-.8712v-3.7026c.1584-.0264.3828-.0462.6732-.0594s.6072-.0198.9504-.0198c.3036 0 .594.0264.8712.0792s.5247.1452.7425.2772.3927.3102.5247.5346.198.5082.198.8514c0 .5148-.1815.9306-.5445 1.2474s-.7953.5544-1.2969.7128c-.1584.0264-.3597.0462-.6039.0594s-.4587.0198-.6435.0198zm.891 5.9994c-.132 0-.2871-.0033-.4653-.0099s-.3498-.0132-.5148-.0198-.3201-.0165-.4653-.0297-.2508-.033-.3168-.0594v-3.8214h1.4454c.3432 0 .6864.0198 1.0296.0594s.6534.1287.9306.2673.5016.3333.6732.5841.2574.594.2574 1.0296c0 .3432-.0726.6402-.2178.891s-.3366.4587-.5742.6237-.5115.2871-.8217.3663-.6303.1188-.9603.1188z" fill="#39b54a"/><path d="m40.1974 56.9144c.6864 0 1.3563-.066 2.0097-.198s1.1913-.3498 1.6137-.6534l-.5544-2.2176c-.3036.1848-.66.3366-1.0692.4554s-.9108.1782-1.5048.1782c-.6336 0-1.1913-.1155-1.6731-.3465s-.8844-.5544-1.2078-.9702-.5643-.9174-.7227-1.5048-.2376-1.2375-.2376-1.9503c0-1.6368.3333-2.8446.9999-3.6234s1.5477-1.1682 2.6433-1.1682c.594 0 1.0989.033 1.5147.099s.7755.1716 1.0791.3168l.5346-2.2968c-.3564-.1452-.8085-.2706-1.3563-.3762s-1.2177-.1584-2.0097-.1584c-.7392 0-1.4784.1221-2.2176.3663s-1.4091.6468-2.0097 1.2078-1.089 1.3002-1.4652 2.2176-.5643 2.0559-.5643 3.4155c0 1.3068.1683 2.4189.5049 3.3363s.7887 1.6632 1.3563 2.2374 1.2243.99 1.9701 1.2474 1.5345.3861 2.3661.3861zm8.7318 0c1.4784 0 2.6235-.4521 3.4353-1.3563s1.2177-2.1945 1.2177-3.8709c0-.7788-.0957-1.4916-.2871-2.1384s-.4785-1.1979-.8613-1.6533-.8646-.8085-1.4454-1.0593-1.2672-.3762-2.0592-.3762c-1.4784 0-2.6268.4521-3.4452 1.3563s-1.2276 2.1945-1.2276 3.8709c0 .7788.0957 1.4916.2871 2.1384s.4818 1.1979.8712 1.6533.8745.8085 1.4553 1.0593 1.2672.3762 2.0592.3762zm0-2.178c-.3564 0-.6633-.0759-.9207-.2277s-.4653-.3663-.6237-.6435-.2772-.6006-.3564-.9702-.1188-.7722-.1188-1.2078c0-1.0824.1782-1.8612.5346-2.3364s.8514-.7128 1.485-.7128c.726 0 1.2408.2805 1.5444.8415s.4554 1.2969.4554 2.2077c0 1.056-.165 1.8282-.495 2.3166s-.8316.7326-1.5048.7326zm8.7912 2.0592c.7392 0 1.3431-.1485 1.8117-.4455s.8349-.6501 1.0989-1.0593h.099l.4158 1.3662h2.0988c-.1584-.4752-.2574-.9801-.297-1.5147s-.0561-1.0857-.0495-1.6533.0297-1.1451.0693-1.7325.0594-1.1715.0594-1.7523c0-.528-.0561-1.0032-.1683-1.4256s-.3036-.7854-.5742-1.089-.6369-.5379-1.0989-.7029-1.0362-.2475-1.7226-.2475c-.792 0-1.551.0693-2.277.2079s-1.353.3267-1.881.5643l.6138 1.9206c.3696-.1716.8415-.3102 1.4157-.4158s1.1187-.1584 1.6335-.1584c.6864 0 1.1286.1617 1.3266.4851s.2508.8547.1584 1.5939c-.8712-.0396-1.6599-.0099-2.3661.0891s-1.3134.2772-1.8216.5346-.8976.594-1.1682 1.0098-.4059.9273-.4059 1.5345c0 .4356.0726.8283.2178 1.1781s.3498.6534.6138.9108.5808.4554.9504.594.7854.2079 1.2474.2079zm.8514-2.1186c-.3828 0-.6831-.1023-.9009-.3069s-.3267-.4917-.3267-.8613c0-.264.0858-.4818.2574-.6534s.4026-.3036.693-.396.6237-.1518.9999-.1782.7689-.0198 1.1781.0198v1.287c-.1452.264-.3696.5115-.6732.7425s-.7128.3465-1.2276.3465zm10.4544 2.2374c.594 0 1.1715-.0759 1.7325-.2277s1.0395-.3729 1.4355-.6633l-.594-1.9602c-.2376.1584-.5082.2937-.8118.4059s-.6732.1683-1.1088.1683c-.396 0-.7425-.0759-1.0395-.2277s-.5379-.3597-.7227-.6237-.3234-.5742-.4158-.9306-.1386-.7458-.1386-1.1682c0-1.0296.1848-1.7787.5544-2.2473s.9108-.7029 1.6236-.7029c.3828 0 .7227.0396 1.0197.1188s.5973.1914.9009.3366l.6138-2.0988c-.3564-.1848-.7557-.3366-1.1979-.4554s-1.0263-.1782-1.7523-.1782c-1.4388 0-2.5344.4521-3.2868 1.3563s-1.1286 2.1945-1.1286 3.8709c0 .7788.0759 1.4916.2277 2.1384s.3993 1.1979.7425 1.6533.7887.8085 1.3365 1.0593 1.2177.3762 2.0097.3762zm7.3062-.2772v-6.3162c.1188-.462.3597-.8415.7227-1.1385s.7623-.4455 1.1979-.4455c.594 0 1.0032.1782 1.2276.5346s.3366.9372.3366 1.7424v5.6232h2.574v-6.1578c0-.7656-.0627-1.4091-.1881-1.9305s-.3168-.9339-.5742-1.2375-.5775-.5214-.9603-.6534-.825-.198-1.3266-.198c-.7128 0-1.3002.1254-1.7622.3762s-.8514.5874-1.1682 1.0098h-.0792v-5.0688h-2.574v13.86zm12.3552.2772c.7656 0 1.4883-.1089 2.1681-.3267s1.2177-.4851 1.6137-.8019l-.8514-1.683c-.2244.1716-.5511.3399-.9801.5049s-.9141.2475-1.4553.2475c-.8712 0-1.5015-.2112-1.8909-.6336s-.6039-1.0494-.6435-1.881h5.94c.066-.3432.1155-.6732.1485-.99s.0495-.6138.0495-.891c0-.7656-.1122-1.4058-.3366-1.9206s-.5214-.924-.891-1.2276-.792-.5214-1.2672-.6534-.9636-.198-1.4652-.198c-1.5048 0-2.673.4356-3.5046 1.3068s-1.2474 2.178-1.2474 3.9204c0 1.6236.3696 2.9007 1.1088 3.8313s1.9074 1.3959 3.5046 1.3959zm1.7028-6.1776h-3.6828c.066-.6732.2607-1.2111.5841-1.6137s.8217-.6039 1.4949-.6039c.5808 0 1.0065.1914 1.2771.5742s.3795.9306.3267 1.6434zm6.7914 5.9004v-6.4152c.1452-.4224.3861-.7755.7227-1.0593s.7491-.4257 1.2375-.4257c.5544 0 .9471.1782 1.1781.5346s.3465.9372.3465 1.7424v5.6232h2.574v-6.1578c0-.7656-.066-1.4091-.198-1.9305s-.33-.9339-.594-1.2375-.5874-.5214-.9702-.6534-.8184-.198-1.3068-.198c-.792 0-1.4388.1584-1.9404.4752s-.9042.6864-1.2078 1.1088h-.0792l-.297-1.3068h-2.0394v9.9z" fill="#066738"/></g></svg>